# xmcd CD database file
#
# Track frame offsets:
#	150
#	14047
#	26605
#	38015
#	52330
#	67000
#	80082
#	95122
#	111045
#	123430
#	137940
#	152017
#
# Disc length: 2206 seconds
#
# Revision: 0
# Processed by: cddbd v1.5.2PL0 Copyright (c) Steve Scherf et al.
# Submitted via: CDex 1.70beta2
#
DISCID=ae089c0c
DTITLE=Wendel Adkins - Feet On The ground
DYEAR=1990
DGENRE=Country
TTITLE0=Feet on the ground
TTITLE1=Lola's love
TTITLE2=Alabama alibi
TTITLE3=Under suspicion
TTITLE4=Who's foolin' who
TTITLE5=Howlin'
TTITLE6=Dangerous
TTITLE7=Rose in paradise
TTITLE8=Roarin' twenties
TTITLE9=It's a jungle out there
TTITLE10=Slide guitar
TTITLE11=Traveller
EXTD=YEAR: 1990
EXTT0=
EXTT1=
EXTT2=
EXTT3=
EXTT4=
EXTT5=
EXTT6=
EXTT7=
EXTT8=
EXTT9=
EXTT10=
EXTT11=
PLAYORDER=
